<?xml version="1.0" standalone="no"?>
<!DOCTYPE svg PUBLIC "-//W3C//DTD SVG 20010904//EN"
 "http://www.w3.org/TR/2001/REC-SVG-20010904/DTD/svg10.dtd">
<svg version="1.0" xmlns="http://www.w3.org/2000/svg"
 width="1000.000000pt" height="1000.000000pt" viewBox="0 0 1000.000000 1000.000000"
 preserveAspectRatio="xMidYMid meet">

<g transform="translate(0.000000,1000.000000) scale(0.100000,-0.100000)"
fill="#000000" stroke="none">
<path d="M0 5000 l0 -5000 5000 0 5000 0 0 5000 0 5000 -5000 0 -5000 0 0
-5000z m9810 -10 l0 -4800 -4800 0 -4800 0 0 4800 0 4800 4800 0 4800 0 0
-4800z"/>
<path d="M1280 7420 l0 -1190 347 2 348 3 25 46 c44 80 81 120 134 145 115 53
260 19 318 -76 57 -94 59 -121 56 -678 -3 -501 -4 -508 -26 -564 -13 -31 -32
-68 -43 -82 -51 -64 -177 -92 -280 -63 -129 38 -179 162 -179 450 l0 97 -375
0 -375 0 0 -158 c0 -185 12 -292 46 -422 113 -433 450 -662 974 -663 503 0
828 201 960 594 59 174 62 212 67 784 3 352 1 571 -6 652 -40 420 -204 674
-499 773 -246 82 -547 59 -720 -54 -28 -19 -56 -37 -62 -41 -7 -4 -10 142 -10
464 l0 471 650 0 650 0 -2 348 -3 347 -997 3 -998 2 0 -1190z"/>
<path d="M4598 8372 l-293 -237 -3 -448 -2 -448 172 140 c95 77 226 183 291
236 l117 96 0 -1691 0 -1690 390 0 390 0 0 2140 0 2140 -384 0 -385 0 -293
-238z"/>
<path d="M6710 8260 l0 -350 656 0 c572 0 655 -2 651 -15 -12 -29 -1037 -3546
-1037 -3556 0 -5 149 -9 379 -9 l379 0 16 48 c8 26 245 835 526 1798 l510
1752 -2 338 -3 339 -1037 3 -1038 2 0 -350z"/>
<path d="M1230 3520 l0 -90 3780 0 3780 0 0 90 0 90 -3780 0 -3780 0 0 -90z"/>
<path d="M8344 2770 c-101 -20 -195 -94 -234 -183 -47 -106 -45 -258 5 -357
43 -85 114 -135 298 -211 105 -42 167 -86 197 -140 22 -38 25 -56 25 -134 -1
-143 -40 -207 -145 -235 -50 -14 -128 -6 -171 16 -64 32 -109 116 -109 201 l0
33 -75 0 c-86 0 -84 2 -65 -100 38 -200 169 -300 379 -288 148 9 253 72 301
182 28 61 43 170 36 243 -18 174 -99 269 -298 347 -216 85 -261 133 -262 278
0 145 67 218 201 218 117 0 172 -47 201 -170 l16 -71 66 3 65 3 -2 45 c-10
225 -198 366 -429 320z"/>
<path d="M1230 2070 l0 -690 305 0 305 0 0 70 0 70 -230 0 -230 0 0 245 0 245
198 2 197 3 3 68 3 67 -201 0 -200 0 0 235 0 235 230 0 230 0 0 70 0 70 -305
0 -305 0 0 -690z"/>
<path d="M2223 2728 c8 -18 72 -166 142 -328 71 -162 128 -299 128 -305 0 -5
-67 -161 -148 -345 -81 -184 -149 -343 -152 -353 -5 -16 2 -18 77 -15 l83 3
111 272 c61 149 114 274 117 277 3 3 57 -120 119 -274 l113 -280 78 0 c43 0
80 3 82 8 2 4 -44 115 -102 247 -59 132 -128 290 -155 352 l-49 112 141 323
c78 178 142 327 142 331 0 4 -36 7 -81 5 l-81 -3 -94 -235 c-51 -129 -97 -243
-102 -254 -6 -14 -33 44 -111 238 l-104 256 -84 0 -83 0 13 -32z"/>
<path d="M3400 2070 l0 -691 73 3 72 3 3 318 2 317 205 0 205 0 2 -317 3 -318
73 -3 72 -3 0 691 0 691 -72 -3 -73 -3 -3 -302 -2 -303 -205 0 -205 0 0 305 0
305 -75 0 -75 0 0 -690z"/>
<path d="M4620 2070 l0 -690 70 0 70 0 0 690 0 690 -70 0 -70 0 0 -690z"/>
<path d="M5270 2069 l0 -691 228 4 c273 6 309 14 387 93 67 67 86 121 92 261
8 177 -31 277 -130 334 l-50 28 29 15 c44 23 90 76 116 132 20 43 23 66 22
160 -1 167 -43 259 -143 310 -71 35 -146 45 -358 45 l-193 0 0 -691z m455 531
c27 -13 50 -34 66 -63 21 -37 24 -54 24 -142 0 -111 -12 -144 -65 -188 -44
-37 -89 -47 -217 -47 l-113 0 0 230 0 230 132 0 c111 0 138 -3 173 -20z m5
-600 c34 -19 52 -38 73 -80 27 -52 28 -61 25 -160 -4 -129 -27 -180 -97 -217
-40 -21 -57 -23 -178 -23 l-133 0 0 256 0 256 133 -4 c119 -3 137 -6 177 -28z"/>
<path d="M6490 2070 l0 -691 73 3 72 3 0 685 0 685 -72 3 -73 3 0 -691z"/>
<path d="M7032 2693 l3 -68 137 -3 138 -3 2 -617 3 -617 73 -3 72 -3 0 621 0
620 140 0 140 0 0 70 0 70 -355 0 -356 0 3 -67z"/>
</g>
</svg>
