<?xml version="1.0" standalone="no"?>
<!DOCTYPE svg PUBLIC "-//W3C//DTD SVG 20010904//EN"
 "http://www.w3.org/TR/2001/REC-SVG-20010904/DTD/svg10.dtd">
<svg version="1.0" xmlns="http://www.w3.org/2000/svg"
 width="1500.000000pt" height="510.000000pt" viewBox="0 0 1500.000000 510.000000"
 preserveAspectRatio="xMidYMid meet">

<g transform="translate(0.000000,510.000000) scale(0.100000,-0.100000)"
fill="#000000" stroke="none">
<path d="M0 2550 l0 -2550 7500 0 7500 0 0 2550 0 2550 -7500 0 -7500 0 0
-2550z m14870 -5 l0 -2425 -7370 0 -7370 0 0 2425 0 2425 7370 0 7370 0 0
-2425z"/>
<path d="M1190 3225 l0 -715 209 0 208 0 30 48 c67 109 204 109 268 1 19 -32
20 -52 20 -369 0 -315 -1 -337 -20 -374 -29 -57 -63 -78 -126 -80 -115 -2
-158 56 -167 229 l-5 105 -223 0 -224 0 0 -109 c0 -404 191 -620 565 -638 331
-16 544 109 633 371 l27 81 0 425 c0 381 -2 432 -18 489 -43 149 -119 250
-230 302 -150 70 -356 65 -479 -11 l-48 -29 0 284 0 285 390 0 390 0 0 210 0
210 -600 0 -600 0 0 -715z"/>
<path d="M3188 3798 l-178 -143 0 -268 c0 -212 3 -267 13 -261 6 5 83 66 169
136 87 70 160 128 163 128 3 0 5 -457 5 -1015 l0 -1015 235 0 235 0 0 1290 0
1290 -233 0 -232 0 -177 -142z"/>
<path d="M4460 3730 l0 -210 394 -2 394 -3 -314 -1075 c-173 -591 -314 -1076
-314 -1078 0 -1 104 -1 231 0 l232 3 232 795 c127 437 268 921 313 1076 l82
281 0 211 0 212 -625 0 -625 0 0 -210z"/>
<path d="M6747 3934 c-4 -4 -7 -594 -7 -1311 l0 -1303 25 0 25 0 -2 1307 c-3
1172 -5 1308 -18 1311 -9 1 -19 0 -23 -4z"/>
<path d="M13580 1989 c-68 -28 -104 -90 -103 -179 0 -105 23 -135 150 -199 72
-36 93 -61 93 -112 0 -97 -115 -113 -134 -18 -5 28 -8 29 -61 29 l-55 0 0 -33
c0 -56 39 -119 90 -144 137 -70 280 18 280 172 0 98 -35 150 -138 204 -89 45
-100 55 -107 97 -17 92 100 122 123 31 8 -30 11 -32 60 -35 l52 -3 0 33 c0 43
-37 116 -73 142 -32 23 -137 32 -177 15z"/>
<path d="M7660 1655 l0 -335 156 0 155 0 -3 53 -3 52 -93 3 -93 3 3 86 3 86
75 1 75 1 0 55 0 55 -75 1 -75 1 -3 82 -3 81 96 0 95 0 0 55 0 55 -155 0 -155
0 0 -335z"/>
<path d="M8493 1978 c48 -119 117 -303 117 -314 0 -7 -23 -71 -51 -141 -28
-71 -57 -145 -65 -165 l-13 -38 59 0 58 0 37 110 c20 61 38 110 40 110 2 0 20
-49 40 -110 l37 -110 59 0 c32 0 59 1 59 3 0 1 -29 76 -65 167 -36 91 -65 171
-65 177 0 7 27 80 60 163 33 83 60 152 60 155 0 3 -27 5 -60 5 l-59 0 -27 -87
c-14 -49 -30 -92 -34 -96 -4 -5 -22 34 -40 87 l-32 96 -60 0 c-44 0 -59 -3
-55 -12z"/>
<path d="M9400 1655 l0 -335 60 0 59 0 3 141 3 142 60 0 60 0 3 -142 3 -141
59 0 60 0 0 335 0 335 -60 0 -59 0 -3 -136 -3 -137 -60 0 -60 0 -3 137 -3 136
-59 0 -60 0 0 -335z"/>
<path d="M10340 1655 l0 -335 60 0 60 0 0 335 0 335 -60 0 -60 0 0 -335z"/>
<path d="M11030 1656 l0 -336 123 0 c183 0 228 31 235 160 5 91 -4 137 -33
166 l-24 24 24 26 c14 15 27 42 31 61 9 49 -2 140 -20 169 -34 50 -61 59 -203
62 l-133 4 0 -336z m220 204 c13 -13 20 -33 20 -60 0 -53 -27 -80 -80 -80
l-40 0 0 80 0 80 40 0 c27 0 47 -7 60 -20z m3 -271 c22 -27 23 -106 1 -137
-12 -17 -25 -22 -60 -22 l-44 0 0 88 c0 49 2 91 5 94 13 13 81 -3 98 -23z"/>
<path d="M11960 1655 l0 -335 60 0 60 0 0 335 0 335 -60 0 -60 0 0 -335z"/>
<path d="M12610 1935 l0 -55 60 0 60 0 0 -280 0 -280 60 0 60 0 0 280 0 280
55 0 55 0 0 55 0 55 -175 0 -175 0 0 -55z"/>
</g>
</svg>
